<svg id="Layer" enable-background="new 0 0 64 64" height="512" viewBox="0 0 64 64" width="512" xmlns="http://www.w3.org/2000/svg"><path d="m35 16.707c0-4.801-3.906-8.707-8.708-8.707h-4.585c-4.801 0-8.707 3.906-8.707 8.71 0 4.02 3.271 7.29 7.29 7.29h.71c1.104 0 2-.896 2-2s-.896-2-2-2h-.71c-1.814 0-3.29-1.476-3.29-3.293 0-2.596 2.112-4.707 4.708-4.707h4.585c2.595 0 4.707 2.111 4.707 4.707 0 5.284-2.392 10.176-6.563 13.419l-10.665 8.295c-.674.525-.941 1.42-.664 2.229.278.807 1.038 1.35 1.892 1.35h26v12c0 1.104.896 2 2 2s2-.896 2-2v-12h4c1.104 0 2-.896 2-2s-.896-2-2-2h-4v-28c0-1.104-.896-2-2-2s-2 .896-2 2v28h-20.171l6.064-4.716c5.152-4.008 8.107-10.05 8.107-16.577z"/></svg>