<svg id="Layer" enable-background="new 0 0 64 64" height="512" viewBox="0 0 64 64" width="512" xmlns="http://www.w3.org/2000/svg"><path d="m54 8h-10.687c-2.671 0-5.183 1.041-7.07 2.929l-.657.657c-.781.781-.781 2.047-.001 2.828.781.782 2.048.781 2.829.001l.657-.657c1.133-1.134 2.64-1.758 4.242-1.758h5.858l-11.95 11.95c-3.079-2.465-6.978-3.95-11.221-3.95-1.051 0-2.098.091-3.109.271-1.087.193-1.813 1.231-1.62 2.319s1.236 1.815 2.319 1.62c.781-.14 1.592-.21 2.41-.21 7.72 0 14 6.28 14 14s-6.28 14-14 14-14-6.28-14-14c0-3.966 1.614-7.638 4.545-10.339.812-.749.864-2.014.115-2.826s-2.014-.862-2.826-.115c-3.708 3.417-5.834 8.257-5.834 13.28 0 9.925 8.075 18 18 18s18-8.075 18-18c0-4.243-1.484-8.141-3.95-11.222l11.95-11.95v5.858c0 1.603-.624 3.11-1.757 4.243l-.657.657c-.781.781-.781 2.047-.001 2.828.391.391.903.586 1.415.586s1.023-.195 1.414-.585l.657-.657c1.889-1.89 2.929-4.401 2.929-7.072v-10.686c0-1.104-.896-2-2-2z"/></svg>