<svg id="Layer" enable-background="new 0 0 64 64" height="512" viewBox="0 0 64 64" width="512" xmlns="http://www.w3.org/2000/svg"><path d="m17 29c0 7.592 5.674 13.868 13 14.851v4.149h-8c-1.104 0-2 .896-2 2s.896 2 2 2h8v2c0 1.104.896 2 2 2s2-.896 2-2v-2h8c1.104 0 2-.896 2-2s-.896-2-2-2h-8v-4.149c7.326-.983 13-7.259 13-14.851 0-6.135-3.705-11.413-8.992-13.735 1.236-1.409 1.992-3.248 1.992-5.265 0-1.104-.896-2-2-2s-2 .896-2 2c0 2.206-1.794 4-4 4s-4-1.794-4-4c0-1.104-.896-2-2-2s-2 .896-2 2c0 2.017.756 3.856 1.992 5.265-5.287 2.322-8.992 7.6-8.992 13.735zm15-11c6.065 0 11 4.935 11 11s-4.935 11-11 11-11-4.935-11-11 4.935-11 11-11z"/></svg>