<svg id="Layer" enable-background="new 0 0 64 64" height="512" viewBox="0 0 64 64" width="512" xmlns="http://www.w3.org/2000/svg"><path d="m42.855 18.902c-.949.565-1.259 1.793-.693 2.742 1.857 3.114 2.838 6.695 2.838 10.356 0 11.028-8.811 20-19.64 20-1.097 0-2.179-.09-3.242-.269 6.293-4.421 10.161-11.732 10.161-19.731s-3.868-15.311-10.161-19.731c1.063-.179 2.145-.269 3.242-.269 4.572 0 8.861 1.556 12.402 4.498.85.706 2.11.59 2.816-.26s.59-2.11-.26-2.816c-4.268-3.547-9.441-5.422-14.958-5.422-3.174 0-6.25.626-9.145 1.86-.737.315-1.215 1.039-1.215 1.841s.479 1.525 1.217 1.839c7.327 3.119 12.062 10.364 12.062 18.46 0 8.095-4.735 15.341-12.062 18.46-.738.313-1.217 1.037-1.217 1.839s.478 1.526 1.215 1.841c2.894 1.234 5.971 1.86 9.145 1.86 13.035 0 23.64-10.767 23.64-24 0-4.382-1.176-8.672-3.402-12.404-.567-.95-1.794-1.259-2.743-.694z"/></svg>