<svg id="Layer" enable-background="new 0 0 64 64" height="512" viewBox="0 0 64 64" width="512" xmlns="http://www.w3.org/2000/svg"><path d="m49.414 8.586c-.608-.607-1.536-.76-2.309-.375l-4 2c-.988.494-1.389 1.695-.895 2.684.494.987 1.693 1.39 2.684.895l.343-.172-1.588 7.949c-.749 3.727-4.05 6.433-7.849 6.433h-1.8v-14l.8.6c.36.271.781.4 1.198.4.608 0 1.209-.276 1.602-.8.663-.884.484-2.138-.399-2.8l-4-3c-.711-.533-1.689-.533-2.4 0l-4 3c-.884.662-1.063 1.916-.399 2.8.662.882 1.915 1.065 2.8.399l.798-.599v14h-1.8c-3.799 0-7.101-2.706-7.85-6.432l-1.588-7.951.343.172c.99.494 2.19.093 2.684-.895s.094-2.189-.895-2.684l-4-2c-.771-.385-1.701-.233-2.309.375l-3 3c-.781.781-.781 2.047 0 2.828.392.392.903.587 1.415.587s1.023-.195 1.414-.586l.357-.357 1.657 8.297c1.124 5.589 6.075 9.646 11.772 9.646h1.8v12h-6c-1.104 0-2 .896-2 2s.896 2 2 2h6v6c0 1.104.896 2 2 2s2-.896 2-2v-6h6c1.104 0 2-.896 2-2s-.896-2-2-2h-6v-12h1.8c5.697 0 10.648-4.057 11.771-9.648l1.657-8.295.358.358c.391.39.902.585 1.414.585s1.023-.195 1.414-.586c.781-.781.781-2.047 0-2.828z"/></svg>