<svg id="Layer" enable-background="new 0 0 64 64" height="512" viewBox="0 0 64 64" width="512" xmlns="http://www.w3.org/2000/svg"><path d="m51 46c-1.104 0-2 .896-2 2v1c0 1.654-1.346 3-3 3-2.757 0-5-2.243-5-5v-13c0-6.617-5.383-12-12-12-3.075 0-5.874 1.172-8 3.081v-7.081h8c1.104 0 2-.896 2-2s-.896-2-2-2h-8v-4c0-1.104-.896-2-2-2s-2 .896-2 2v4h-4c-1.104 0-2 .896-2 2s.896 2 2 2h4v16 4 6c0 1.104.896 2 2 2s2-.896 2-2v-6-4c0-4.411 3.589-8 8-8s8 3.589 8 8v13c0 4.963 4.037 9 9 9 3.859 0 7-3.141 7-7v-1c0-1.104-.896-2-2-2z"/></svg>