<svg id="Layer" enable-background="new 0 0 64 64" height="512" viewBox="0 0 64 64" width="512" xmlns="http://www.w3.org/2000/svg"><path d="m32 8c-4.808 0-9.437 1.408-13.388 4.072-.916.618-1.157 1.86-.54 2.776.618.916 1.86 1.158 2.776.54 3.288-2.216 7.144-3.388 11.152-3.388 11.028 0 20 8.972 20 20s-8.972 20-20 20-20-8.972-20-20c0-4.008 1.172-7.865 3.389-11.152.617-.916.376-2.159-.54-2.776-.915-.618-2.157-.376-2.776.54-2.665 3.95-4.073 8.58-4.073 13.388 0 13.233 10.767 24 24 24s24-10.767 24-24c0-13.234-10.767-24-24-24z"/><circle cx="32" cy="32" r="4"/></svg>