<svg id="Layer" enable-background="new 0 0 64 64" height="512" viewBox="0 0 64 64" width="512" xmlns="http://www.w3.org/2000/svg"><path d="m34 24.139v-9.31l1.465 1.466c.99.988 1.535 2.305 1.535 3.704 0 1.104.896 2 2 2s2-.896 2-2c0-2.469-.961-4.789-2.707-6.533l-4.879-4.88c-.75-.75-2.078-.75-2.828 0l-4.879 4.88c-1.746 1.744-2.707 4.065-2.707 6.534 0 1.104.896 1.999 2 1.999s2-.896 2-2c0-1.399.545-2.716 1.535-3.705l1.465-1.466v9.31c-7.88.99-14 7.718-14 15.862 0 8.822 7.178 16 16 16s16-7.178 16-16c0-8.144-6.12-14.872-14-15.861zm-2 27.861c-6.617 0-12-5.383-12-12s5.383-12 12-12 12 5.383 12 12-5.383 12-12 12z"/><circle cx="32" cy="40" r="4"/></svg>