<svg width="12" height="12" viewBox="0 0 12 12" fill="none" xmlns="http://www.w3.org/2000/svg">
<path d="M5.9195 1C4.0345 1 2.5 2.533 2.5 4.418C2.5 6.088 3.7075 7.482 5.288 7.7785V8.8115H4.392C4.0755 8.8115 3.8195 9.0685 3.8195 9.3845C3.8195 9.7005 4.0755 9.9575 4.392 9.9575H5.288V10.601C5.288 10.9175 5.545 11.174 5.8615 11.174C6.178 11.174 6.4355 10.9165 6.4355 10.601V9.9575H7.3765C7.693 9.9575 7.9495 9.6995 7.9495 9.3845C7.9495 9.067 7.693 8.8115 7.3765 8.8115H6.4355V7.797C8.081 7.547 9.337 6.127 9.337 4.418C9.337 2.533 7.8045 1 5.9195 1ZM5.9195 6.6895C4.666 6.6895 3.647 5.67 3.647 4.417C3.647 3.164 4.666 2.1445 5.9195 2.1445C7.172 2.1445 8.1915 3.164 8.1915 4.417C8.1915 5.67 7.1725 6.6895 5.9195 6.6895Z" fill="white"/>
</svg>
