<svg width="12" height="12" viewBox="0 0 12 12" fill="none" xmlns="http://www.w3.org/2000/svg">
<path d="M10.2405 2.17152C10.2375 2.16902 10.2335 2.16702 10.2315 2.16452C10.0965 2.03152 9.9095 1.97902 9.7365 2.00752L7.7355 2.03352C7.419 2.03802 7.166 2.29752 7.17 2.61402C7.174 2.92952 7.4135 3.16502 7.75 3.17902L8.42 3.17052L7.4395 4.15102C6.8565 3.72102 6.1545 3.48852 5.416 3.48852C4.503 3.48852 3.6445 3.84402 2.999 4.48952C1.667 5.82202 1.667 7.99052 2.999 9.32302C3.6445 9.96852 4.503 10.324 5.416 10.324C6.3285 10.324 7.1875 9.96852 7.833 9.32302C9.013 8.14202 9.1495 6.30552 8.2385 4.97502L9.268 3.94852V4.69802C9.268 5.01452 9.525 5.27052 9.841 5.27052C10.1585 5.27052 10.414 5.01402 10.414 4.69802V2.57802C10.414 2.42602 10.3495 2.27902 10.2405 2.17152ZM7.023 8.51302C6.165 9.37102 4.6685 9.37102 3.8095 8.51302C2.9235 7.62752 2.9235 6.18552 3.8095 5.29952C4.239 4.87052 4.8095 4.63402 5.4165 4.63402C6.024 4.63402 6.5935 4.87052 7.024 5.29952C7.9095 6.18502 7.9095 7.62752 7.023 8.51302Z" fill="white"/>
</svg>
